#!OML:ASF F:\VICON\USERDATA\INSTALL\rory3\rory3.ASF
:FULLY-SPECIFIED
:DEGREES
335
root 5.61171 15.9767 -32.4819 24.1807 -12.9867 -1.26403
lowerback -3.62451 -4.63314 -0.75394
upperback -7.46446 -6.17815 2.40521
thorax -5.37579 -3.00721 2.97218
lowerneck -25.9654 4.19026 2.5171
upperneck 28.0224 5.78182 -2.49457
head 14.064 2.36889 -0.307754
rclavicle -5.82439e-014 -4.57205e-015
rhumerus -26.8442 -5.42592 -74.7342
rradius 27.8138
rwrist -21.5195
rhand 0.936197 7.95773
rfingers 7.12502
rthumb 26.4868 -20.2111
lclavicle -5.82439e-014 -4.57205e-015
lhumerus 1.42762 -51.998 82.9348
lradius 22.1763
lwrist -38.1717
lhand 8.12599 16.9679
lfingers 7.12502
lthumb 33.3468 43.8943
rfemur -72.0566 -0.886816 22.1782
rtibia 45.0169
rfoot 10.9638 -15.6513
rtoes -0.651715
lfemur -23.1119 -4.48977 -26.6767
ltibia 30.1027
lfoot -44.0011 28.712
ltoes -15.1408
336
root 5.55457 15.9266 -32.3873 24.4203 -13.2772 -1.46536
lowerback -4.45818 -4.69678 -0.598044
upperback -7.72036 -6.27024 2.33036
thorax -5.19811 -3.06969 2.74791
lowerneck -23.9696 4.20727 2.16009
upperneck 27.1343 5.74292 -1.85862
head 13.2404 2.44615 -0.0483066
rclavicle 4.89259e-014 1.64991e-014
rhumerus -26.5733 -7.01636 -72.9362
rradius 25.1774
rwrist -15.7679
rhand 0.390484 6.68396
rfingers 7.12502
rthumb 25.9643 -21.5625
lclavicle 4.89259e-014 1.64991e-014
lhumerus 2.54435 -48.9186 81.5715
lradius 21.5158
lwrist -39.6619
lhand 7.60706 18.2854
lfingers 7.12502
lthumb 32.8533 45.3164
rfemur -72.4258 -0.664944 23.0944
rtibia 46.0229
rfoot 11.7772 -14.3696
rtoes -1.97622
lfemur -23.2412 -4.0562 -26.5336
ltibia 30.6472
lfoot -44.3901 28.5824
ltoes -15.1688
337
root 5.50748 15.8714 -32.2525 24.3035 -13.407 -1.50489
lowerback -4.6855 -4.55627 -0.752155
upperback -7.73007 -6.07526 2.44582
thorax -5.06173 -2.96277 2.93205
lowerneck -24.917 4.11721 1.90768
upperneck 27.7096 5.69275 -1.76846
head 13.6605 2.38999 0.0432321
rclavicle -9.86469e-015 0
rhumerus -25.7864 -9.35876 -70.0788
rradius 22.4388
rwrist -9.91365
rhand 0.38982 5.66264
rfingers 7.12502
rthumb 25.9637 -22.5839
lclavicle -9.86469e-015 0
lhumerus 4.33213 -45.4458 80.7578
lradius 20.974
lwrist -41.9044
lhand 4.69467 22.7267
lfingers 7.12502
lthumb 30.0787 50.2997
rfemur -72.3633 -0.610464 23.7407
rtibia 47.2626
rfoot 11.6929 -13.4092
rtoes -2.54072
lfemur -22.773 -3.93507 -26.5635
ltibia 31.0773
lfoot -44.9092 28.6731
ltoes -15.6851
338
root 5.47434 15.8255 -32.1136 23.9649 -12.6659 -1.22061
lowerback -5.01797 -4.70038 -0.571937
upperback -7.80105 -6.27228 2.35266
thorax -4.96962 -3.07521 2.70861
lowerneck -24.7535 3.98608 1.76543
upperneck 27.9087 5.53789 -1.6694
head 13.6992 2.32067 0.0749257
rclavicle 2.75814e-014 5.56597e-015
rhumerus -25.4741 -12.4807 -66.9679
rradius 19.9068
rwrist -3.36049
rhand 0.98664 5.1656
rfingers 7.12502
rthumb 26.5351 -22.9959
lclavicle 2.75814e-014 5.56597e-015
lhumerus 5.21878 -37.4729 81.4991
lradius 19.5136
lwrist -48.7842
lhand 7.35808 17.2055
lfingers 7.12502
lthumb 32.6165 44.2858
rfemur -72.1011 -1.54383 24.3283
rtibia 48.6418
rfoot 10.8746 -12.7324
rtoes -1.28112
lfemur -22.0885 -3.98076 -26.6942
ltibia 31.4837
lfoot -45.064 28.3093
ltoes -16.3527
339
root 5.42461 15.7803 -31.9647 23.9441 -12.3381 -1.08681
lowerback -4.78801 -4.80626 -1.00041
upperback -8.63017 -6.39687 2.83685
thorax -5.88242 -3.08239 3.52276
lowerneck -24.3638 3.8581 1.07409
upperneck 28.666 5.68815 -1.73269
head 13.9233 2.28856 0.191536
rclavicle -7.50816e-014 -1.29707e-014
rhumerus -25.9664 -15.0003 -62.6724
rradius 17.748
rwrist 3.26787
rhand 1.77278 4.59462
rfingers 7.12502
rthumb 27.2873 -23.4509
lclavicle -7.50816e-014 -1.29707e-014
lhumerus 6.58241 -39.9 80.1108
lradius 19.7545
lwrist -44.8127
lhand 7.64822 19.3898
lfingers 7.12502
lthumb 32.8925 46.4126
rfemur -72.173 -2.18434 25.0998
rtibia 50.1816
rfoot 9.4685 -11.9359
rtoes -1.48304
lfemur -21.5332 -3.94711 -26.747
ltibia 31.6736
lfoot -45.3992 28.2619
ltoes -17.2836
340
root 5.36667 15.7341 -31.8186 23.9023 -12.2667 -1.18115
lowerback -6.32626 -4.90619 -0.458395
upperback -8.47548 -6.54868 2.53912
thorax -4.9363 -3.21927 2.75367
lowerneck -23.3272 4.01663 1.29525
upperneck 28.276 5.73217 -1.47933
head 13.5393 2.38929 0.237986
rclavicle 1.05909e-013 6.85807e-015
rhumerus -25.7809 -20.7625 -59.0319
rradius 15.3557
rwrist 11.8367
rhand 2.38715 4.02389
rfingers 7.12502
rthumb 27.8748 -23.9278
lclavicle 1.05909e-013 6.85807e-015
lhumerus 9.02176 -38.2512 77.4846
lradius 19.1561
lwrist -45.2669
lhand 6.90104 20.0626
lfingers 7.12502
lthumb 32.1815 47.232
rfemur -72.127 -2.23258 25.7409
rtibia 51.6823
rfoot 7.19124 -11.2353
rtoes -2.208
lfemur -20.8855 -3.98304 -26.6118
ltibia 31.7809
lfoot -45.9776 28.2919
ltoes -17.5839
341
root 5.30716 15.6917 -31.6723 23.6372 -11.4606 -1.10787
lowerback -5.99201 -4.91163 -0.527393
upperback -8.92 -6.55086 2.60509
thorax -5.58536 -3.20271 2.92509
lowerneck -23.7871 3.74842 1.25109
upperneck 29.2683 5.40999 -1.5301
head 14.0551 2.21346 0.183682
rclavicle 1.35422e-015 3.34952e-014
rhumerus -26.9692 -26.3855 -53.6894
rradius 13.732
rwrist 19.557
rhand 2.55364 2.80192
rfingers 7.12502
rthumb 28.034 -25.1239
lclavicle 1.35422e-015 3.34952e-014
lhumerus 10.564 -35.6729 77.1761
lradius 18.5557
lwrist -47.3937
lhand 5.64474 20.8193
lfingers 7.12502
lthumb 30.9847 48.2237
rfemur -71.7854 -2.74929 26.2079
rtibia 53.0895
rfoot 5.70863 -11.8019
rtoes 3.01266
lfemur -20.025 -4.53115 -26.3369
ltibia 31.8349
lfoot -46.2541 28.3445
ltoes -18.0247
342
root 5.25268 15.6352 -31.5207 23.5518 -11.0826 -1.1166
lowerback -7.10321 -4.72817 -0.0554091
upperback -8.53613 -6.33293 2.07748
thorax -4.67324 -3.14877 1.996
lowerneck -24.7013 3.56487 1.60146
upperneck 29.8668 4.88926 -1.18807
head 14.5019 2.06329 0.185712
rclavicle -1.05623e-013 -1.59028e-015
rhumerus -28.5157 -35.4726 -47.8494
rradius 11.9929
rwrist 29.4491
rhand 2.06848 3.31047
rfingers 7.12502
rthumb 27.5701 -24.6903
lclavicle -1.05623e-013 -1.59028e-015
lhumerus 14.7338 -38.8808 72.5953
lradius 19.1755
lwrist -43.7562
lhand 4.50909 23.047
lfingers 7.12502
lthumb 29.9016 50.652
rfemur -71.6018 -3.05831 26.7003
rtibia 54.274
rfoot 3.9726 -11.8263
rtoes 4.32735
lfemur -19.3059 -5.12958 -26.159
ltibia 31.813
lfoot -46.6281 29.0212
ltoes -19.0412
343
root 5.19395 15.578 -31.362 23.5338 -10.9683 -1.06797
lowerback -7.75123 -4.81672 -0.0967527
upperback -8.92119 -6.45162 2.14888
thorax -4.71021 -3.20656 2.05252
lowerneck -23.9549 3.54255 1.46239
upperneck 30.0454 4.92418 -1.18238
head 14.4171 2.06628 0.20544
rclavicle -6.35459e-014 -2.127e-014
rhumerus -31.467 -43.2204 -40.1598
rradius 10.6461
rwrist 39.3764
rhand 1.7104 3.93967
rfingers 7.12502
rthumb 27.2276 -24.1153
lclavicle -6.35459e-014 -2.127e-014
lhumerus 16.411 -38.4116 70.7183
lradius 19.459
lwrist -42.8115
lhand 7.19437 21.2971
lfingers 7.12502
lthumb 32.4607 48.4096
rfemur -71.4674 -3.12277 26.9504
rtibia 55.2769
rfoot 2.05829 -11.9789
rtoes 5.8506
lfemur -18.6002 -5.36463 -26.1404
ltibia 31.731
lfoot -47.0188 29.3721
ltoes -19.732
